<?xml version="1.0" encoding="UTF-8" standalone="no"?>
<svg
   width="700"
   height="700"
   viewBox="0 0 7000 7000"
   version="1.1"
   id="svg898"
   sodipodi:docname="favicon.svg"
   inkscape:version="1.1.2 (b8e25be8, 2022-02-05)"
   xmlns:inkscape="http://www.inkscape.org/namespaces/inkscape"
   xmlns:sodipodi="http://sodipodi.sourceforge.net/DTD/sodipodi-0.dtd"
   xmlns="http://www.w3.org/2000/svg"
   xmlns:svg="http://www.w3.org/2000/svg">
  <defs
     id="defs902" />
  <sodipodi:namedview
     id="namedview900"
     pagecolor="#ffffff"
     bordercolor="#666666"
     borderopacity="1.0"
     inkscape:pageshadow="2"
     inkscape:pageopacity="0.0"
     inkscape:pagecheckerboard="0"
     showgrid="false"
     inkscape:zoom="0.83527083"
     inkscape:cx="256.80293"
     inkscape:cy="354.97468"
     inkscape:window-width="1312"
     inkscape:window-height="763"
     inkscape:window-x="0"
     inkscape:window-y="25"
     inkscape:window-maximized="0"
     inkscape:current-layer="svg898" />
  <g
     fill="black"
     id="g896">
    <path
       id="pYfHPxJAZ"
       d="m 435,6356 c -16,-7 -43,-25 -58,-40 -57,-54 -57,-54 -57,-570 l 1,-473 33,-39 c 18,-22 66,-86 107,-143 41,-57 90,-125 109,-151 79,-108 203,-278 238,-325 20,-27 81,-112 137,-187 55,-75 125,-171 155,-214 30,-42 116,-158 190,-258 74,-100 142,-192 151,-206 9,-14 28,-38 43,-53 14,-15 26,-30 26,-33 0,-3 124,-174 152,-209 22,-28 120,-159 167,-225 30,-41 60,-82 67,-90 8,-8 48,-62 90,-120 46.0816,-60.7696 93.805,-132.135 139,-188 36.5424,-51.9952 73,-96 117,-157 45,-60 89.184,-119.4576 125,-168 29.1211,-40.152 58.1999,-78.976 83,-115 14,-20 27,-39 30,-42 3,-3 17,-21 30,-40 33.0794,-41.831 65.5811,-86.241 95,-125 47,-53 53,-65 33,-65 -7,0 -504,-1 -1105,-3 l -1091,-2 -38,-31 c -21,-16 -47,-43 -58,-58 -21,-27 -21,-39 -24,-594 -2,-550 -2,-568 17,-599 11,-18 39,-46 62,-63 l 42,-30 h 3049 c 3304,0 3077,-4 3140,53 58,51 58,48 58,624 0,335 -4,542 -11,565 -11,42 -35,71 -89,109 l -35,24 -670,2 -670,2 -3,349 -2,350 22,6 c 13,3 261,6 551,6 439,0 533,2 555,14 35,19 81,78 93,119 12,41 11,1040 0,1091 -5,21 -22,52 -38,68 -59,62 -36,60 -603,59 -285,-1 -529,1 -543,4 l -25,7 -1,1024 c -1,1089 0,1064 -47,1106 -57,51 84,48 -2401,48 -1898,-1 -2313,-3 -2338,-14 z M 4871,5080 c 0,-509 7.5448,-1003 7,-1098 -0.908,-111.5908 -1.7264,-165.138 -1.8184,-177.1816 -5,-3 85.8184,-3.8184 203.8184,-3.8184 142,0 102.4518,0.8529 200,0.8529 91.6735,0 338.5826,-3.4487 423,-3.8529 l 382,-3 2,-280 c 0,-154 -1,-291 -3,-305 l -5,-26 -512,3 c -348,2 -527,0 -559,-8 -57,-13 -122,-73 -132,-120 -12,-61 -7,-1139 6,-1181 14,-48 73,-103 126,-117 25,-7 265,-11 680,-11 l 642,1 2,-326 c 2,-211 0,-325 -7,-326 -10,0 -1980,0 -2000,1 -7,0 -10,165 -11,473 0,259 -6,751 -13,1092 -7,341 -13,1054 -12,1584 1,925 0,965 -18,1005 -27,60 -61.6368,97.7264 -118.6368,114.7264 C 4061.9949,5370.2896 1868,5387 1791,5364 c -128,-38 -176,-176 -101,-289 29,-45 65,-93 294,-400 115,-154 239,-320 276,-370 37,-49 100,-135 140,-190 41,-55 139,-188 217,-295 79,-107 150,-203 159,-213 8,-10 37,-49 63,-86 26,-36 68,-93 93,-126 24,-33 82,-111 128,-172 41.7398,-57.1614 82.7062,-115.2094 124,-168 36,-49 83,-113 167,-228 35,-49 78,-107 95,-130 17,-23 52,-73 79,-112 27,-38 53,-74 57,-80 5,-5 43,-58 86,-117 112,-154 242,-332 279,-381 l 32,-42 v -432 l 1,-433 h -252 c -177,-1 -2985,0 -3048,0 -3,0 -5,146 -5,325 v 325 h 45 c 25,0 547,1 1161,3 l 1116,2 49,30 c 84,52 119,166 79,261 -12,29 -63,104 -85,124 -3,3 -18,25 -34,50 -89.4569,113.0178 -174.2503,237.2896 -254,354 -58,76 -230,311 -292,396 -30,41 -57,77 -60,80 -4,3 -22,28 -40,55 -35,51 -189,256 -200,265 -3,3 -20,28 -38,55 -17,28 -42,62 -54,77 -13,15 -53,69 -91,120 -37,51 -122,167 -190,258 -67,91 -129,175 -137,187 -150.4828,211.32 -317.1143,427.6952 -462,634 -40,56 -99,137 -131,182 -31,45 -102,143 -158,217 -55,74 -127,172 -159,217 l -60,83 -2,300 c -2,181 1,301 6,303 6,2 950,3 2098,3 l 2089,-1 z M 3948,3520 c 6,-245 12,-557 14,-694 4,-243 4,-248 -15,-225 -10,13 -23,31 -30,39 -7,8 -46,62 -87,120 -41,58 -79,110 -85,116 -5,6 -39,52 -75,103 -36,50 -120,167 -188,259 -68,92 -138,187 -156,212 -62,85 -274,374 -383,523 -45,62 -108,148 -140,192 -84,117 -177.1848,245.4744 -242,325 -80.6082,101.7873 -167.4917,215.0887 -243.5448,326.4552 -31.3037,46.506 -55.988,83.7639 -85,123 -15.2668,21.5053 -22.1562,32.5641 -32.4552,51.5448 0,5 388,10 863,11 l 862,3 6,-520 c 4,-286 11,-720 17,-965 z"
       sodipodi:nodetypes="cccccsccccsscsccccccccsccsccccccccscsccccccccscscccccccccsccscccccccccccccccccscscccccccccccccsccccccccsscscccccccccccccccccccccccccssccssccsccccccccccs" />
  </g>
</svg>
